<?xml version="1.0" encoding="UTF-8"?>
<svg version="1.1" xmlns="http://www.w3.org/2000/svg" width="257" height="54">
<path d="M0 0 C84.81 0 169.62 0 257 0 C257 17.82 257 35.64 257 54 C172.19 54 87.38 54 0 54 C0 36.18 0 18.36 0 0 Z " fill="#FCFCFC" transform="translate(0,0)"/>
<path d="M0 0 C0 1.98 0 3.96 0 6 C-0.54269531 6.23074219 -1.08539062 6.46148438 -1.64453125 6.69921875 C-4.95827419 8.20980787 -7.52246829 9.47769969 -10 12.1875 C-11.43104847 16.21232381 -11.66985708 19.77990039 -11 24 C-8.80613412 28.38773175 -6.55479418 31.09334197 -2 33 C3.30037655 33.5782229 6.4110867 32.6073371 11 30 C11.99 29.67 12.98 29.34 14 29 C14.99 29.66 15.98 30.32 17 31 C15.01012379 35.80886752 11.65349734 37.95987979 7 40 C0.14021441 41.25161 -5.06967299 39.74821647 -10.79296875 35.890625 C-15.2490307 32.07339671 -17.48151238 28.03315256 -18.46875 22.2578125 C-18.83813892 15.59034242 -17.36472809 11.04448083 -13 6 C-8.80427764 2.11128171 -5.76122189 0 0 0 Z " fill="#5E7DE0" transform="translate(18,4)"/>
<path d="M0 0 C10.625 -0.25 10.625 -0.25 14 2 C14.43132515 6.05445642 14.30019361 7.54970958 12 11 C12.495 11.928125 12.99 12.85625 13.5 13.8125 C15 17 15 17 15 20 C13.68 20 12.36 20 11 20 C10.5875 18.865625 10.175 17.73125 9.75 16.5625 C8.43314602 12.90456616 8.43314602 12.90456616 5.8125 12.0625 C5.214375 12.041875 4.61625 12.02125 4 12 C4 14.64 4 17.28 4 20 C2.68 20 1.36 20 0 20 C0 13.4 0 6.8 0 0 Z " fill="#0C0C0C" transform="translate(139,18)"/>
<path d="M0 0 C1.32 0.33 2.64 0.66 4 1 C4.33 0.67 4.66 0.34 5 0 C7.99894961 -0.26077823 10.18003295 -0.43731576 12.875 1 C14.68159223 4.21171951 14.51338313 7.45623032 14 11 C12.875 13.5 12.875 13.5 11 15 C7.875 15.3125 7.875 15.3125 5 15 C4.67 14.67 4.34 14.34 4 14 C3.67 16.31 3.34 18.62 3 21 C2.01 21 1.02 21 0 21 C0 14.07 0 7.14 0 0 Z " fill="#060606" transform="translate(121,23)"/>
<path d="M0 0 C1.32 0.33 2.64 0.66 4 1 C4.33 0.67 4.66 0.34 5 0 C6.99952758 -0.04346799 9.00039988 -0.039992 11 0 C13.02126284 0 15.04291874 -0.04256811 17.0625 -0.125 C20 0 20 0 22 2 C22.1953125 5.0390625 22.1953125 5.0390625 22.125 8.625 C22.10695312 9.81351563 22.08890625 11.00203125 22.0703125 12.2265625 C22.04710937 13.14179687 22.02390625 14.05703125 22 15 C20.68 15 19.36 15 18 15 C17.67 11.37 17.34 7.74 17 4 C16.01 4 15.02 4 14 4 C13.67 7.63 13.34 11.26 13 15 C11.68 15 10.36 15 9 15 C8.67 11.37 8.34 7.74 8 4 C6.68 4.33 5.36 4.66 4 5 C3.67 8.3 3.34 11.6 3 15 C2.01 15 1.02 15 0 15 C0 10.05 0 5.1 0 0 Z " fill="#151515" transform="translate(205,23)"/>
<path d="M0 0 C5.68104589 0.54105199 9.70247854 2.28867763 13.453125 6.71484375 C16.71580731 11.14946655 18.14148088 14.46724102 18.125 20.0625 C18.12886719 21.37927734 18.12886719 21.37927734 18.1328125 22.72265625 C18 25 18 25 17 27 C14.5625 26.625 14.5625 26.625 12 26 C11 24 11 24 11.125 20.75 C10.96582882 15.97486463 9.55443886 12.97837673 6.625 9.25 C4.56331156 7.66408582 2.44292928 6.8583265 0 6 C0 4.02 0 2.04 0 0 Z " fill="#5BB1E8" transform="translate(22,4)"/>
<path d="M0 0 C1.17755859 -0.01160156 1.17755859 -0.01160156 2.37890625 -0.0234375 C3.05824219 0.10804687 3.73757812 0.23953125 4.4375 0.375 C5.0975 1.365 5.7575 2.355 6.4375 3.375 C6.1075 4.035 5.7775 4.695 5.4375 5.375 C2.7975 5.045 0.1575 4.715 -2.5625 4.375 C-2.8925 5.365 -3.2225 6.355 -3.5625 7.375 C-2.93601562 7.49617188 -2.30953125 7.61734375 -1.6640625 7.7421875 C-0.84679688 7.90976562 -0.02953125 8.07734375 0.8125 8.25 C1.62460938 8.41242187 2.43671875 8.57484375 3.2734375 8.7421875 C5.4375 9.375 5.4375 9.375 7.4375 11.375 C7.99563135 16.62143465 7.99563135 16.62143465 6.19921875 19.046875 C3.96730362 20.72947177 2.70699033 20.74750562 -0.0625 20.6875 C-0.8359375 20.68363281 -1.609375 20.67976563 -2.40625 20.67578125 C-4.5625 20.375 -4.5625 20.375 -7.5625 18.375 C-7.2325 17.055 -6.9025 15.735 -6.5625 14.375 C-6.005625 14.705 -5.44875 15.035 -4.875 15.375 C-2.25965478 16.5059601 -0.3818354 16.53162974 2.4375 16.375 C2.4375 15.385 2.4375 14.395 2.4375 13.375 C1.88320312 13.18164062 1.32890625 12.98828125 0.7578125 12.7890625 C0.03335938 12.52867188 -0.69109375 12.26828125 -1.4375 12 C-2.51644531 11.61714844 -2.51644531 11.61714844 -3.6171875 11.2265625 C-5.5625 10.375 -5.5625 10.375 -7.5625 8.375 C-7.92174848 5.57286183 -8.05938221 4.03384065 -6.328125 1.73828125 C-4.0898381 0.01004645 -2.80224013 -0.02769924 0 0 Z " fill="#141414" transform="translate(64.5625,17.625)"/>
<path d="M0 0 C1.32 0 2.64 0 4 0 C4.33 2.31 4.66 4.62 5 7 C5.33 6.67 5.66 6.34 6 6 C8.9375 5.75 8.9375 5.75 12 6 C14.35119399 9.52679099 14.21443452 11.02879485 14.125 15.1875 C14.10695313 16.27417969 14.08890625 17.36085938 14.0703125 18.48046875 C14.03550781 19.72763672 14.03550781 19.72763672 14 21 C12.68 21 11.36 21 10 21 C9.67 17.37 9.34 13.74 9 10 C7.68 10 6.36 10 5 10 C4.67 13.63 4.34 17.26 4 21 C2.68 21 1.36 21 0 21 C0 14.07 0 7.14 0 0 Z " fill="#0F0F0F" transform="translate(75,17)"/>
<path d="M0 0 C1.9375 1.1875 1.9375 1.1875 3 3 C3 4.65 3 6.3 3 8 C-0.3 8 -3.6 8 -7 8 C-6.67 8.99 -6.34 9.98 -6 11 C-5.236875 11 -4.47375 11 -3.6875 11 C-1.79166667 11 0.10416667 11 2 11 C2 11.99 2 12.98 2 14 C-1.09173752 15.54586876 -3.59429552 15.29359521 -7 15 C-9.4375 13.4375 -9.4375 13.4375 -11 11 C-11.56288002 7.05983987 -11.60396028 4.94217804 -9.4375 1.5625 C-6.09493717 -0.58016848 -3.89504791 -0.49573337 0 0 Z " fill="#0E0E0E" transform="translate(167,23)"/>
<path d="M0 0 C2 2 2 2 2.1953125 4.3828125 C2.17210938 5.28773437 2.14890625 6.19265625 2.125 7.125 C2.10695313 8.03507812 2.08890625 8.94515625 2.0703125 9.8828125 C2.04710938 10.58148438 2.02390625 11.28015625 2 12 C2.66 12 3.32 12 4 12 C4 12.99 4 13.98 4 15 C2.04196493 15.05389087 0.08351091 15.09274217 -1.875 15.125 C-2.96554688 15.14820313 -4.05609375 15.17140625 -5.1796875 15.1953125 C-8 15 -8 15 -10 13 C-10.3125 10.5 -10.3125 10.5 -10 8 C-7 6 -7 6 -4.375 5.5 C-3.59125 5.335 -2.8075 5.17 -2 5 C-1.67 4.34 -1.34 3.68 -1 3 C-3.64 3.33 -6.28 3.66 -9 4 C-9 3.01 -9 2.02 -9 1 C-5.98675805 -0.50662097 -3.31713623 -0.17770373 0 0 Z " fill="#0B0B0B" transform="translate(102,23)"/>
<path d="M0 0 C2 2 2 2 2.125 5.125 C2.08375 6.07375 2.0425 7.0225 2 8 C-0.97 8 -3.94 8 -7 8 C-6.67 8.99 -6.34 9.98 -6 11 C-4.35 11.33 -2.7 11.66 -1 12 C-1 11.34 -1 10.68 -1 10 C-0.01 10.33 0.98 10.66 2 11 C1.34 12.32 0.68 13.64 0 15 C-7.38052027 15.48396854 -7.38052027 15.48396854 -10 13.4375 C-11.69829236 9.29791237 -11.69829236 5.70208763 -10 1.5625 C-6.73859795 -0.98547035 -4.06005224 -0.38667164 0 0 Z " fill="#262626" transform="translate(241,23)"/>
<path d="M0 0 C1.32 0 2.64 0 4 0 C4 3.96 4 7.92 4 12 C5.32 11.67 6.64 11.34 8 11 C8.33 7.37 8.66 3.74 9 0 C10.32 0 11.64 0 13 0 C13 4.95 13 9.9 13 15 C11.68 14.67 10.36 14.34 9 14 C8.67 14.33 8.34 14.66 8 15 C5.0625 15.1875 5.0625 15.1875 2 15 C0 13 0 13 -0.1953125 9.9609375 C-0.17210937 8.77757812 -0.14890625 7.59421875 -0.125 6.375 C-0.10695312 5.18648437 -0.08890625 3.99796875 -0.0703125 2.7734375 C-0.04710937 1.85820312 -0.02390625 0.94296875 0 0 Z " fill="#111111" transform="translate(187,23)"/>
<path d="M0 0 C0 1.32 0 2.64 0 4 C-2.97 3.505 -2.97 3.505 -6 3 C-4.37633534 6.24732932 -1.24612161 6.70155136 2 8 C2.125 10.375 2.125 10.375 2 13 C-0.32528287 15.32528287 -0.84665898 15.29511025 -4 15.3125 C-4.70125 15.32925781 -5.4025 15.34601562 -6.125 15.36328125 C-6.74375 15.24339844 -7.3625 15.12351562 -8 15 C-8.66 14.01 -9.32 13.02 -10 12 C-6.94736336 11.01879536 -5.05263664 11.01879536 -2 12 C-2 11.01 -2 10.02 -2 9 C-2.94875 8.87625 -3.8975 8.7525 -4.875 8.625 C-8 8 -8 8 -10 6 C-9.75 3.4375 -9.75 3.4375 -9 1 C-6.04335481 -0.4783226 -3.25770263 -0.06032783 0 0 Z " fill="#121212" transform="translate(182,23)"/>
<path d="M0 0 C1.32 0.33 2.64 0.66 4 1 C6.68149993 0.61432869 6.68149993 0.61432869 9 0 C9 0.99 9 1.98 9 3 C7.68 3.33 6.36 3.66 5 4 C4.67 7.63 4.34 11.26 4 15 C2.68 15 1.36 15 0 15 C0 10.05 0 5.1 0 0 Z " fill="#0F0F0F" transform="translate(109,23)"/>
<path d="M0 0 C0.928125 0.20625 1.85625 0.4125 2.8125 0.625 C2.28981534 3.38776177 1.70380413 5.9510876 0.8125 8.625 C-1.5625 8.75 -1.5625 8.75 -4.1875 8.625 C-6.1875 6.625 -6.1875 6.625 -6.5 4.125 C-6.396875 3.3 -6.29375 2.475 -6.1875 1.625 C-3.1875 -0.375 -3.1875 -0.375 0 0 Z " fill="#171717" transform="translate(98.1875,29.375)"/>
<path d="M0 0 C4.70588235 0.70588235 4.70588235 0.70588235 6 2 C6.07258946 4.18639453 6.08373783 6.37500389 6.0625 8.5625 C6.05347656 9.76003906 6.04445312 10.95757812 6.03515625 12.19140625 C6.02355469 13.11824219 6.01195312 14.04507813 6 15 C4.68 15 3.36 15 2 15 C1.95101562 14.07316406 1.90203125 13.14632812 1.8515625 12.19140625 C1.77679688 10.99386719 1.70203125 9.79632813 1.625 8.5625 C1.55539063 7.36753906 1.48578125 6.17257813 1.4140625 4.94140625 C1.27742187 3.97074219 1.14078125 3.00007813 1 2 C0.34 1.67 -0.32 1.34 -1 1 C-0.67 0.67 -0.34 0.34 0 0 Z " fill="#181818" transform="translate(221,23)"/>
<path d="M0 0 C2.625 0.375 2.625 0.375 5 1 C5 3.31 5 5.62 5 8 C2.625 8.625 2.625 8.625 0 9 C-2 7 -2 7 -2.25 4.5 C-2 2 -2 2 0 0 Z " fill="#ECECEC" transform="translate(126,26)"/>
<path d="M0 0 C0.99 0 1.98 0 3 0 C3 0.66 3 1.32 3 2 C3.66 2 4.32 2 5 2 C4.34 6.29 3.68 10.58 3 15 C2.01 15 1.02 15 0 15 C0 10.05 0 5.1 0 0 Z " fill="#020202" transform="translate(205,23)"/>
<path d="M0 0 C1.65 0 3.3 0 5 0 C5.38218767 1.65614657 5.71395102 3.32457024 6 5 C5 6 5 6 2.4375 6.0625 C1.2309375 6.0315625 1.2309375 6.0315625 0 6 C0 4.02 0 2.04 0 0 Z " fill="#E4E4E4" transform="translate(143,21)"/>
<path d="M0 0 C0.33 0 0.66 0 1 0 C1 1.98 1 3.96 1 6 C-0.32 6 -1.64 6 -3 6 C-3 6.99 -3 7.98 -3 9 C-4.65 9 -6.3 9 -8 9 C-8.33 7.68 -8.66 6.36 -9 5 C-6.03 5 -3.06 5 0 5 C0 3.35 0 1.7 0 0 Z " fill="#C4C4C4" transform="translate(243,26)"/>
<path d="M0 0 C3.3 0 6.6 0 10 0 C6.67692308 3.93846154 6.67692308 3.93846154 3.25 4.25 C2.5075 4.1675 1.765 4.085 1 4 C0.67 2.68 0.34 1.36 0 0 Z " fill="#D2D2D2" transform="translate(160,31)"/>
<path d="M0 0 C1.32 0 2.64 0 4 0 C3.67 1.32 3.34 2.64 3 4 C1.68 4 0.36 4 -1 4 C-0.67 2.68 -0.34 1.36 0 0 Z " fill="#E1E1E1" transform="translate(97,31)"/>
<path d="M0 0 C1.65 0 3.3 0 5 0 C5 0.99 5 1.98 5 3 C3.02 3 1.04 3 -1 3 C-0.67 2.01 -0.34 1.02 0 0 Z " fill="#E3E3E3" transform="translate(161,26)"/>
</svg>
